<?xml version="1.0" encoding="UTF-8" standalone="no"?>
<!-- Created with Inkscape (http://www.inkscape.org/) -->

<svg
   version="1.1"
   id="svg2"
   xml:space="preserve"
   width="235.45999"
   height="260.51199"
   viewBox="0 0 235.45998 260.51198"
   sodipodi:docname="new-logo.svg"
   inkscape:version="1.1.2 (b8e25be833, 2022-02-05)"
   xmlns:inkscape="http://www.inkscape.org/namespaces/inkscape"
   xmlns:sodipodi="http://sodipodi.sourceforge.net/DTD/sodipodi-0.dtd"
   xmlns="http://www.w3.org/2000/svg"
   xmlns:svg="http://www.w3.org/2000/svg"><defs
     id="defs6"><rect
       x="462.04623"
       y="460.7261"
       width="550.49512"
       height="136.63367"
       id="rect2866" /><clipPath
       clipPathUnits="userSpaceOnUse"
       id="clipPath20"><path
         d="m 4000,1519.38 c -1681.62,0 -3044.848,203.45 -3044.848,454.43 0,250.97 1363.228,454.42 3044.848,454.42 1681.62,0 3044.84,-203.45 3044.84,-454.42 0,-250.98 -1363.22,-454.43 -3044.84,-454.43"
         id="path18" /></clipPath><clipPath
       clipPathUnits="userSpaceOnUse"
       id="clipPath80"><path
         d="m 4211.97,4363.76 c 102.63,214.96 70.09,458.82 -35.99,667.83 168.8,-192.22 201.98,-465.35 35.99,-667.83 z m 561.73,598.19 -471.97,272.5 c 67.22,-77.86 133.72,-174.71 175.26,-285.86 l 216.75,-125.16 c 13.4,-7.75 29.27,-35.22 29.27,-50.7 v -767.24 c 0,-15.49 -15.87,-42.99 -29.27,-50.72 l -273.78,-158.06 c 239.69,416.02 57.23,759.01 57.23,759.01 -23.98,-190.32 -190.03,-258.75 -190.03,-258.75 364.65,598.64 -342.36,1071.66 -342.36,1071.66 273.83,-467.66 -246.6,-956.59 -246.6,-956.59 64.35,174.32 -92.37,264.99 -92.37,264.99 -284.75,-333.03 -275.8,-599.1 -186.31,-787.63 l -113.24,65.37 c -13.39,7.73 -29.26,35.23 -29.26,50.72 v 767.24 c 0,15.48 15.87,42.95 29.26,50.7 l 591.36,341.38 c -7.9,51.87 -23.39,104.39 -48.27,156.85 l -623.08,-359.71 c -63.3,-36.55 -109.25,-116.15 -109.25,-189.22 v -767.24 c 0,-73.11 45.95,-152.7 109.25,-189.25 0,0 692.45,-396.98 708.09,-401.45 -307.19,260.64 -263.55,753.1 118.91,1026.84 -378.54,-457.76 85.32,-980.3 278.75,-880.39 l 441.66,255 c 63.3,36.55 109.29,116.14 109.29,189.25 v 767.24 c 0,73.07 -45.99,152.67 -109.29,189.22 z"
         id="path78" /></clipPath><linearGradient
       x1="0"
       y1="0"
       x2="1"
       y2="0"
       gradientUnits="userSpaceOnUse"
       gradientTransform="matrix(-6.58e-5,1506.14,1506.14,6.58e-5,4000.01,3516.63)"
       spreadMethod="pad"
       id="linearGradient86"><stop
         style="stop-opacity:1;stop-color:#f04724"
         offset="0"
         id="stop82" /><stop
         style="stop-opacity:1;stop-color:#f48517"
         offset="1"
         id="stop84" /></linearGradient></defs><sodipodi:namedview
     id="namedview4"
     pagecolor="#505050"
     bordercolor="#eeeeee"
     borderopacity="1"
     inkscape:pageshadow="0"
     inkscape:pageopacity="0"
     inkscape:pagecheckerboard="0"
     showgrid="false"
     inkscape:snap-global="false"
     inkscape:zoom="1.5149999"
     inkscape:cx="194.38945"
     inkscape:cy="140.9241"
     inkscape:window-width="2400"
     inkscape:window-height="1271"
     inkscape:window-x="2391"
     inkscape:window-y="-9"
     inkscape:window-maximized="1"
     inkscape:current-layer="g10"
     showguides="false"
     fit-margin-top="0"
     fit-margin-left="0"
     fit-margin-right="0"
     fit-margin-bottom="0" /><g
     id="g8"
     inkscape:groupmode="layer"
     inkscape:label="ink_ext_XXXXXX"
     transform="matrix(1.3333333,0,0,-1.3333333,-193.16306,673.57309)"><g
       id="g10"
       transform="scale(0.1)"><g
         id="g74"
         transform="translate(-1668.317,-316.83172)"><g
           id="g76"
           clip-path="url(#clipPath80)"><path
             d="m 4211.97,4363.76 c 102.63,214.96 70.09,458.82 -35.99,667.83 168.8,-192.22 201.98,-465.35 35.99,-667.83 z m 561.73,598.19 -471.97,272.5 c 67.22,-77.86 133.72,-174.71 175.26,-285.86 l 216.75,-125.16 c 13.4,-7.75 29.27,-35.22 29.27,-50.7 v -767.24 c 0,-15.49 -15.87,-42.99 -29.27,-50.72 l -273.78,-158.06 c 239.69,416.02 57.23,759.01 57.23,759.01 -23.98,-190.32 -190.03,-258.75 -190.03,-258.75 364.65,598.64 -342.36,1071.66 -342.36,1071.66 273.83,-467.66 -246.6,-956.59 -246.6,-956.59 64.35,174.32 -92.37,264.99 -92.37,264.99 -284.75,-333.03 -275.8,-599.1 -186.31,-787.63 l -113.24,65.37 c -13.39,7.73 -29.26,35.23 -29.26,50.72 v 767.24 c 0,15.48 15.87,42.95 29.26,50.7 l 591.36,341.38 c -7.9,51.87 -23.39,104.39 -48.27,156.85 l -623.08,-359.71 c -63.3,-36.55 -109.25,-116.15 -109.25,-189.22 v -767.24 c 0,-73.11 45.95,-152.7 109.25,-189.25 0,0 692.45,-396.98 708.09,-401.45 -307.19,260.64 -263.55,753.1 118.91,1026.84 -378.54,-457.76 85.32,-980.3 278.75,-880.39 l 441.66,255 c 63.3,36.55 109.29,116.14 109.29,189.25 v 767.24 c 0,73.07 -45.99,152.67 -109.29,189.22"
             style="fill:url(#linearGradient86);fill-opacity:1;fill-rule:nonzero;stroke:none"
             id="path88" /></g></g></g></g></svg>
